<svg width="90" height="31" viewBox="0 0 90 31" fill="none" xmlns="http://www.w3.org/2000/svg">
<path d="M0.40625 2.18182H7.77841L12.8494 14.5398H13.1051L18.1761 2.18182H25.5483V24H19.7528V11.3864H19.5824L14.7244 23.8295H11.2301L6.37216 11.3011H6.2017V24H0.40625V2.18182ZM32.0202 30.1364C31.3455 30.1364 30.7028 30.0831 30.092 29.9766C29.4812 29.8771 28.945 29.7386 28.4833 29.5611L29.7617 25.3849C30.2447 25.5554 30.685 25.6655 31.0827 25.7152C31.4876 25.7649 31.832 25.7365 32.1161 25.63C32.4073 25.5234 32.6168 25.321 32.7447 25.0227L32.8725 24.7244L27.1197 7.63636H33.256L35.8981 18.9716H36.0685L38.7532 7.63636H44.9322L38.9663 25.3636C38.668 26.2656 38.2347 27.0753 37.6665 27.7926C37.1055 28.517 36.3668 29.0888 35.4506 29.5078C34.5344 29.9268 33.391 30.1364 32.0202 30.1364Z" fill="#D18718"/>
<path d="M46.5195 24V2.18182H52.4428V19.2273H61.2639V24H46.5195ZM63.7434 24V7.63636H69.6241V24H63.7434ZM66.6838 5.93182C65.8883 5.93182 65.2065 5.66903 64.6383 5.14347C64.0701 4.6179 63.786 3.9858 63.786 3.24716C63.786 2.50852 64.0701 1.87642 64.6383 1.35085C65.2065 0.825284 65.8883 0.5625 66.6838 0.5625C67.4863 0.5625 68.1681 0.825284 68.7292 1.35085C69.2974 1.87642 69.5815 2.50852 69.5815 3.24716C69.5815 3.9858 69.2974 4.6179 68.7292 5.14347C68.1681 5.66903 67.4863 5.93182 66.6838 5.93182ZM72.5352 24V2.18182H78.4158V10.4915H78.5011C78.7141 9.9375 79.0266 9.42969 79.4386 8.96804C79.8505 8.49929 80.3619 8.12642 80.9727 7.84943C81.5835 7.56534 82.2937 7.4233 83.1033 7.4233C84.1829 7.4233 85.2092 7.71094 86.1822 8.28622C87.1623 8.86151 87.9577 9.76704 88.5685 11.0028C89.1864 12.2386 89.4954 13.8437 89.4954 15.8182C89.4954 17.7074 89.2006 19.2734 88.6112 20.5163C88.0288 21.7592 87.2475 22.6861 86.2674 23.2969C85.2944 23.9077 84.2255 24.2131 83.0607 24.2131C82.2937 24.2131 81.6083 24.0888 81.0046 23.8402C80.408 23.5845 79.8967 23.2401 79.4705 22.8068C79.0515 22.3665 78.7283 21.8693 78.5011 21.3153H78.3732V24H72.5352ZM78.288 15.8182C78.288 16.6136 78.391 17.3026 78.5969 17.8849C78.81 18.4602 79.1083 18.9077 79.4918 19.2273C79.8825 19.5398 80.3477 19.696 80.8874 19.696C81.4272 19.696 81.8853 19.5433 82.2617 19.2379C82.6452 18.9254 82.9364 18.4815 83.1353 17.9062C83.3413 17.3239 83.4442 16.6278 83.4442 15.8182C83.4442 15.0085 83.3413 14.3161 83.1353 13.7408C82.9364 13.1584 82.6452 12.7145 82.2617 12.4091C81.8853 12.0966 81.4272 11.9403 80.8874 11.9403C80.3477 11.9403 79.8825 12.0966 79.4918 12.4091C79.1083 12.7145 78.81 13.1584 78.5969 13.7408C78.391 14.3161 78.288 15.0085 78.288 15.8182Z" fill="#4474B4"/>
</svg>
